<svg xmlns="http://www.w3.org/2000/svg" viewBox="0 0 624 382">
  <g fill="none" fill-rule="nonzero">
    <path fill="#000" fill-opacity=".025" d="M314.8 25l165.1 318H60a3 3 0 01-3-3V28a3 3 0 013-3h254.8z"/>
    <path fill="#FFF" fill-opacity=".1" d="M314.8 25H564a3 3 0 013 3v312a3 3 0 01-3 3h-84L314.7 25z"/>
    <path fill="#FFF" d="M56 0h512a16 16 0 0116 16v336a16 16 0 01-16 16H56a16 16 0 01-16-16V16A16 16 0 0156 0zm4 24a4 4 0 00-4 4v312a4 4 0 004 4h504a4 4 0 004-4V28a4 4 0 00-4-4H60z"/>
    <path fill="#DDD" d="M56 2a14 14 0 00-14 14v336a14 14 0 0014 14h512a14 14 0 0014-14V16a14 14 0 00-14-14H56zm0-2h512a16 16 0 0116 16v336a16 16 0 01-16 16H56a16 16 0 01-16-16V16A16 16 0 0156 0z"/>
    <path fill="#DDD" d="M621.4 377l-12 4.5a8 8 0 01-2.9.5h-589c-1 0-2-.2-2.9-.5l-12-4.5a4 4 0 01-2.6-3.8V366c0-1.1.9-2 2-2h620a2 2 0 012 2v7.2a4 4 0 01-2.6 3.8z"/>
    <path fill="#CCC" d="M253 364h118a8 8 0 01-8 8H261a8 8 0 01-8-8z"/>
    <circle cx="312" cy="13" r="2" fill="#DDD"/>
  </g>
</svg>
