<svg xmlns="http://www.w3.org/2000/svg" viewBox="0 0 144 278">
  <defs>
    <linearGradient id="mobile-a" x1="100%" x2="50%" y1="50%" y2="50%">
      <stop offset="0%" stop-color="#DDD" stop-opacity="0"/>
      <stop offset="100%" stop-color="#DDD"/>
    </linearGradient>
    <linearGradient id="mobile-b" x1="0%" x2="50%" y1="50%" y2="50%">
      <stop offset="0%" stop-color="#DDD" stop-opacity="0"/>
      <stop offset="100%" stop-color="#DDD"/>
    </linearGradient>
  </defs>
  <g fill="none" fill-rule="nonzero">
    <path fill="#000" fill-opacity=".025" d="M135 263.3a11.5 11.5 0 01-10.8 7.7H20.5C14 271 9 265.9 9 259.5V17.8c0-1.3.2-2.6.6-3.8L135 263.3z"/>
    <path fill="#FFF" fill-opacity=".1" d="M134.4 264L9 14.7C10.6 10.2 14.8 7 19.8 7h103.7C130 7 135 12.1 135 18.5v241.7c0 1.3-.2 2.6-.6 3.8z"/>
    <path fill="#FFF" d="M20 0h104c10 0 18 8 18 18v242c0 10-8 18-18 18H20c-10 0-18-8-18-18V18C2 8 10 0 20 0zm0 6A12 12 0 008 18v242a12 12 0 0012 12h104a12 12 0 0012-12V18a12 12 0 00-12-12H20zm18 0h68l-.9 5.3a8 8 0 01-7.9 6.7H46.8a8 8 0 01-8-6.7L38 6z"/>
    <path fill="#DDD" d="M20 2A16 16 0 004 18v242a16 16 0 0016 16h104a16 16 0 0016-16V18a16 16 0 00-16-16H20zm0-2h104c10 0 18 8 18 18v242c0 10-8 18-18 18H20c-10 0-18-8-18-18V18C2 8 10 0 20 0z"/>
    <path fill="url(#mobile-a)" d="M1 34h1v10H1a1 1 0 01-1-1v-8c0-.6.4-1 1-1z"/>
    <path fill="url(#mobile-a)" d="M1 52h1v18H1a1 1 0 01-1-1V53c0-.6.4-1 1-1z"/>
    <path fill="url(#mobile-a)" d="M1 74h1v18H1a1 1 0 01-1-1V75c0-.6.4-1 1-1z"/>
    <path fill="url(#mobile-b)" d="M142 59h1c.6 0 1 .4 1 1v26c0 .6-.4 1-1 1h-1V59z"/>
    <rect width="16" height="2" x="64" y="10" fill="#DDD" rx="1"/>
    <circle cx="88" cy="11" r="2" fill="#DDD"/>
  </g>
</svg>
