<svg xmlns="http://www.w3.org/2000/svg" viewBox="0 0 128 128">
  <g fill="#FFF" fill-rule="evenodd" stroke-linecap="round" stroke-linejoin="round" stroke-width="1.25">
    <path stroke="#6E6E6E" d="M16.4 53.3A26 26 0 0113.3 41c0-17.1 17.2-31 38.3-31C72.8 10 90 23.9 90 41S72.8 72 51.6 72a42.6 42.6 0 01-28.8-10.6c-2.7 0-5.5 1.3-8.7 5.8-6.2 9-5.3-6.3 2.3-14z"/>
    <path stroke="#FF6910" d="M66.8 29.9c0 5-3.3 8.2-6.2 10.5-4 3-4.5 3.8-4.5 5.8 0 2.4-1.8 4.2-4.6 4.2s-4.7-1.8-4.7-4.7c0-4 .9-5.7 4.6-8.5 2.6-2 5-3.5 5-6.2 0-3.2-2-4-4.6-4-2 0-3 .8-4.2 1.5-.7.3-1.4.5-2.4.5-3.1 0-4.7-2.2-4.7-4.2s1.5-3.5 3-4.5c2.6-1.3 5.2-2.1 9.6-2.1 6.4 0 13.7 3.3 13.7 11.7zM56.5 58a5 5 0 01-5 4.9c-2.7 0-5-2.2-5-4.9a5 5 0 015-5 5 5 0 015 5z"/>
    <path stroke="#FF6910" d="M41.8 34.8c.8 2.4-.3 4.4-1.3 6-1.5 2-1.6 2.4-1.3 3.4.4 1.1-.2 2.3-1.5 2.7-1.4.4-2.5-.1-3-1.5-.6-1.9-.4-2.9.9-4.8 1-1.4 1.8-2.4 1.4-3.7-.5-1.5-1.6-1.6-2.8-1.2-1 .3-1.3.9-1.8 1.4-.2.2-.5.5-1 .6-1.5.5-2.6-.3-2.9-1.3-.3-1 .2-1.9.8-2.6 1-1 2.1-1.8 4.2-2.5 3-1 7-.5 8.3 3.5zm.4 15.5c.5 1.6-.4 3.4-2.1 4-1.7.5-3.5-.4-4-2a3.2 3.2 0 116-2z"/>
    <path stroke="#FF6910" d="M72.3 46.3c-1 1.5-2.5 2-3.8 2.1-1.8.2-2 .4-2.4 1-.4.7-1.3 1-2.2.5-.9-.5-1.1-1.4-.6-2.3.7-1.2 1.3-1.6 3-1.8 1.1-.2 2.1-.2 2.6-1 .5-1 0-1.7-.7-2.1-.7-.4-1.1-.3-1.6-.3-.3 0-.5 0-.8-.2-1-.6-1-1.6-.7-2.2.3-.6 1-.8 1.7-.8 1 0 2 .2 3.4 1 2 1.1 3.6 3.5 2.1 6zm-8 7.6c-.7 1-2 1.4-3.1.8-1.1-.7-1.5-2-.9-3.1s2-1.5 3.1-.9c1.1.7 1.5 2 .9 3.2z"/>
    <path stroke="#969696" d="M110.6 99.3c2-3.8 3.1-8 3.1-12.3 0-17.1-17.2-31-38.3-31C54.2 56 37 69.9 37 87s17.2 31 38.4 31c11.5 0 21.8-4.1 28.8-10.6 2.7 0 5.5 1.3 8.7 5.8 6.2 9 5.4-6.3-2.3-14z"/>
    <path stroke="#FF6910" d="M61 79c1.2-4.6 6-7.3 10.5-6 3.3.8 5.4 4.3 6 7.3 2.1-2.3 5.7-4.2 9-3.4 4.6 1.2 7.3 6 6 10.5-2.6 10.1-19.6 15.5-21 15-.8-.1-13.3-13.3-10.6-23.4z"/>
  </g>
</svg>
