<svg xmlns="http://www.w3.org/2000/svg" viewBox="0 0 288 288">
  <g fill="none" fill-rule="evenodd" stroke-linecap="round" stroke-linejoin="round" stroke-width="1.25">
    <path fill="#FFF" stroke="#6E6E6E" d="M238.6 130c.5 8 1 9.5 1.5 10.5.7 1.5 4.1 4.2 4.3 5 .3.8 0 1.5-4 1.5a10823.4 10823.4 0 00-28.2 0c-4 0-4.2-.7-4-1.5.3-.8 3.7-3.5 4.4-5 .5-1 1-2.4 1.5-10.5"/>
    <rect width="108" height="66" x="172" y="64" fill="#FFF" stroke="#6E6E6E" rx="4"/>
    <rect width="100" height="58" x="176" y="68" fill="#FFF" stroke="#969696" rx="1"/>
    <path stroke="#FF6910" d="M235 108h-17.5l-3.4-25H206"/>
    <path stroke="#FF6910" d="M215 89h24l-.7 5h-22.6l-.7-5zm23.3 5l-.6 5h-21.4l-.6-5h22.6zm-.6 5l-.7 5h-20l-.7-5h21.4zM215 89h6l1 15h-5l-2-15zm18 0h6l-2 15h-5l1-15zm-12 0h6v15h-5l-1-15zm6 0h6l-1 15h-5V89z"/>
    <circle cx="218.5" cy="109.5" r="2.5" fill="#FFF" stroke="#FF6910"/>
    <circle cx="235.5" cy="109.5" r="2.5" fill="#FFF" stroke="#FF6910"/>
    <path stroke="#FFF" stroke-width="5" d="M112.5 183.7c-19.5 7.2-38 7.2-44 5.3-6.3-2-6.3-9.6-3-12.5"/>
    <path stroke="#969696" d="M112.5 183.7c-19.5 7.2-38 7.2-44 5.3-6.3-2-6.3-9.6-3-12.5"/>
    <path fill="#FFF" stroke="#969696" d="M66 176h104v4H66z"/>
    <path fill="#FFF" stroke="#6E6E6E" d="M84.8 89h66.4a4 4 0 014 3.8l1.6 39a4 4 0 01-4 4.2H83.2a4 4 0 01-4-4.2l1.6-39a4 4 0 014-3.8z"/>
    <path fill="#FFF" stroke="#6E6E6E" d="M63 136h110v40H63z"/>
    <path stroke="#969696" stroke-dasharray="0 3" d="M65 142h106"/>
    <path stroke="#969696" stroke-dasharray="0 3" d="M109 144v30"/>
    <path fill="#FFF" stroke="#969696" d="M70 150h32c.6 0 1 .4 1 1v1c0 .6-.4 1-1 1H70a1 1 0 01-1-1v-1c0-.6.4-1 1-1z"/>
    <path fill="#FFF" stroke="#969696" d="M85.7 93.5h64.6c.5 0 1 .4 1 1l1.1 36a1 1 0 01-1 1H84.6a1 1 0 01-1-1s0 0 0 0l1.1-36c0-.6.5-1 1-1z"/>
    <path fill="#FFF" stroke="#FF6910" d="M123.8 104.7c0 .9-.7 1.9-2 1.9-.4 0-.7-.1-1.2-.4-.4-.2-.9-.3-1.7-.3-1.4 0-2.4 1-2.8 2.8h2.4c.8 0 1.4.6 1.4 1.4 0 .8-.6 1.5-1.4 1.5H116v.8h2.5a1.4 1.4 0 110 2.8H116c.4 2 1.3 2.8 2.7 2.8.7 0 1.4-.2 2-.5l1.2-.3c.9 0 1.7.7 1.7 1.8a2 2 0 01-.8 1.7c-1 .8-3 1.2-4.1 1.2-4.4 0-6.5-2.8-7-6.7h-.4a1.4 1.4 0 010-2.8h.2v-.9h-.2a1.4 1.4 0 010-2.8h.4c.5-3.8 2.6-6.7 7.1-6.7 1.4 0 3 .4 4 1 .6.5.9 1.1.9 1.7z"/>
    <path stroke="#FFF" stroke-width="5" d="M158.5 169.6c4.8.7 12.4 5.2 16.8 8.2 1.2.8.6 2.4-.5 3.8-1.2 1.5-3 2.6-3.7 2a51 51 0 00-13.6-7.3c-2-.4-5.4 0-9.4.8v.6c.2.9 1.1 1.5-3 2.4-4.2 1-7.7 1.1-7.9.3 0-.2.2-.5.7-.9-8.6 2.3-17.7 5-23.5 5.5-2.7.2-3.4-3-.8-4.2 10.6-5.2 36.5-12.4 45-11.2z"/>
    <path fill="#FFF" stroke="#969696" d="M145 180.1c-4.1 1-7.6 1.1-7.8.3-.1-.8 3.1-2.3 7.3-3.2 4.1-1 3.5-.3 3.6.5.2.9 1.1 1.5-3 2.4z"/>
    <path fill="#FFF" stroke="#6E6E6E" d="M171 183.6a51 51 0 00-13.5-7.3c-7.2-1.6-31.8 7.6-43 8.7-2.8.2-3.5-3-1-4.2 10.7-5.2 36.6-12.4 45-11.2 4.8.7 12.4 5.2 16.8 8.2 1.2.8.6 2.4-.5 3.8-1.2 1.5-3 2.6-3.7 2z"/>
    <path fill="#FFF" stroke="#6E6E6E" d="M76.4 152H96c-1 1-1 9-1 12 0 3.4-1.6 5-3.4 6H72a8.3 8.3 0 003.3-6.5c0-3 0-10.4 1-11.5z"/>
    <path fill="#FFF" stroke="#FF6910" d="M91 167.3H77h14z"/>
    <path fill="#FFF" stroke="#6E6E6E" d="M218 185.1l7.6-6.1h32.8l7.6 6.1V219h-48v-33.9z"/>
    <path fill="#FFF" stroke="#6E6E6E" d="M226 160h32v22h-32z"/>
    <path fill="#FFF" stroke="#6E6E6E" d="M231 156h22l5 4h-32z"/>
    <path fill="#FFF" stroke="#6E6E6E" d="M218 185.1h48"/>
    <path fill="#FFF" stroke="#FF6910" d="M243 165.4l-1 .7-1-.7-1.2.7V160l.5-4h3.4l.5 4v6.1z"/>
    <path fill="#FFF" stroke="#6E6E6E" d="M194 197.2h56V237h-56z"/>
    <path fill="#FFF" stroke="#6E6E6E" d="M202.8 190h38.4l8.8 7.2h-56z"/>
    <path fill="#FFF" stroke="#FF6910" d="M225.9 208.3l-1.3-1.3-1.3 1.3-1.3-1.3-1.3 1.3-1.3-1.3-1.3 1.3v-11.1l1-7.2h5.8l1 7.2v11.1z"/>
    <path fill="#FFF" stroke="#FF6910" d="M218 197.2h8-8z"/>
    <path fill="#FFF" d="M271.3 60.6a15 15 0 11-28.6 8.8 15 15 0 0128.6-8.8z"/>
    <path fill="#FFF" stroke="#969696" d="M247.3 75.5l24.3-7.4-24.3 7.4zm-4.6-6.1l28.6-8.8-28.6 8.8zm-.3-7.4l25-7.7-25 7.7z"/>
    <path stroke="#FF6910" d="M252.6 50.7c4.2-1.3 9.5 4 11.9 12 2.4 8 1 15.4-3.1 16.6-4.1 1.3-9.5-4-11.9-12-2.4-8-1-15.4 3.1-16.6zm8.8 28.6l-8.8-28.6 8.8 28.6z"/>
    <path stroke="#6E6E6E" d="M271.3 60.6a15 15 0 11-28.6 8.8 15 15 0 0128.6-8.8z"/>
    <path fill="#FFF" stroke="#6E6E6E" d="M18 207.4c1 10.3 1.9 18.3 2.8 24-1.6-.4-3.5-1-3.7-2a75 75 0 01-2.6-14.7l-1.3-14.4c0-1.3 2.2-2.7 4-3.4l.8 10.5z"/>
    <path fill="#FFF" stroke="#6E6E6E" d="M18.5 179.4l34-3c1 0 2 .7 2.2 1.7 1 6.2 2.1 15.6 3.2 28s1.7 21.8 1.7 28.1c0 1-.8 2-1.8 2l-34 3c-1.1 0-2-.6-2.2-1.7-1-6.2-2.2-15.5-3.2-28-1.1-12.4-1.7-21.8-1.7-28 0-1.1.8-2 1.8-2z"/>
    <path fill="#FFF" stroke="#6E6E6E" d="M25.4 238l-2.5-25.5c0-.6.4-1.2 1.1-1.3 0 0 0 0 0 0h0l28.6-2.5a1.2 1.2 0 011.3 1.1l2 25.5"/>
    <path fill="#FFF" stroke="#6E6E6E" d="M23 188.7l26.7-2.3 1.3 15-26.7 2.2z"/>
    <path fill="#FFF" stroke="#969696" d="M23.7 184.3l24.6-2.1"/>
    <path fill="#FFF" stroke="#969696" d="M25.7 207.3l3.2-.3m18.2-1.6l3.2-.3m-14 1.3l3.3-.3"/>
    <path fill="#FFF" stroke="#6E6E6E" d="M30.2 221.4l2.1-.2m14-1.2l2-.2m-10.1 1l2.1-.3m-10.5-2.8l2.2-.2m13.9-1.2l2.1-.2M38 217l2.1-.2m-9.5 8.4l2.1-.2m14-1.3l2-.1m-10 .9l2-.2m-9.8 4.6l2.2-.2m13.9-1.2l2.1-.2m-10.2.9l2.2-.2m-9.8 4.6l2-.2m14-1.2l2.1-.2m-10.1 1l2.1-.3"/>
    <path fill="#FFF" stroke="#FF6910" d="M15 214.7l1.1-.1"/>
    <path fill="#FFF" stroke="#969696" d="M15.2 216.8h1"/>
    <path fill="#FFF" stroke="#969696" d="M15.4 219l1-.2"/>
    <path fill="#FFF" stroke="#969696" d="M15.6 221h1"/>
    <path fill="#FFF" stroke="#6E6E6E" d="M44 214.7l26.3 4.6c.6 0 1 .6.8 1.1a436.6 436.6 0 01-6.5 37 1 1 0 01-1.1.9L37 253.6a1 1 0 01-.8-1.1 436.6 436.6 0 016.6-37 1 1 0 011.1-.8z"/>
    <path fill="#FFF" stroke="#6E6E6E" d="M48.5 223.8l14.5 2.5-1.2 6.5-14.5-2.5z"/>
    <path fill="#FFF" stroke="#969696" d="M45 239l1.6.3m12.9 2.3l1.6.3m-8.9-1.6l1.6.3m-8.2-4.9l1.6.3m12.9 2.3l1.6.2m-8.9-1.5l1.6.3m-10 5l1.6.3m12.9 2.3l1.6.3m-8.9-1.6l1.7.3m-9.5 1.8l1.6.2m13 2.3l1.5.3m-8.8-1.6l1.6.3m-9.5 1.8l1.6.3m13 2.2l1.5.3m-8.8-1.5l1.6.2"/>
    <path fill="#FFF" stroke="#969696" d="M69 222.4l1.6.3"/>
    <path fill="#FFF" stroke="#FF6910" d="M70 222.6h.6"/>
    <path fill="#FFF" d="M52.5 250.2l24.4-8.9c.6-.2 1.3.1 1.5.7l5.1 14c.3.7 0 1.4-.7 1.6l-24.3 8.8c-.7.3-1.3 0-1.6-.7l-5-14c-.3-.6 0-1.3.6-1.5z"/>
    <path fill="#FFF" stroke="#969696" d="M80.4 247.6l-1.6.6-25 9m-1.3-3.6h0l25-9.1 1.6-.6"/>
    <path stroke="#6E6E6E" d="M52.5 250.2l24.4-8.9c.6-.2 1.3.1 1.5.7l5.1 14c.3.7 0 1.4-.7 1.6l-24.3 8.8c-.7.3-1.3 0-1.6-.7l-5-14c-.3-.6 0-1.3.6-1.5z"/>
    <path fill="#FFF" d="M66 259.3c0-1 3-1.7 5.6-1.7 2.7 0 5.7.6 5.7 1.7v5.6c0 1.1-3 1.7-5.7 1.7-2.6 0-5.6-.6-5.6-1.7v-5.6zm14.6-5.6c0-1 3-1.7 5.7-1.7 2.6 0 5.6.6 5.6 1.7v11.2c0 1.1-3 1.7-5.7 1.7-2.6 0-5.6-.6-5.6-1.7v-11.2z"/>
    <path fill="#FFF" stroke="#969696" d="M91.9 265c0 1-3 1.6-5.7 1.6-2.6 0-5.6-.6-5.6-1.7m11.3-2.8c0 1.1-3 1.7-5.7 1.7-2.6 0-5.6-.6-5.6-1.7m11.3-2.8c0 1-3 1.7-5.7 1.7-2.6 0-5.6-.6-5.6-1.7m11.3-2.8c0 1-3 1.7-5.7 1.7-2.6 0-5.6-.6-5.6-1.7m5.7-4.5c2.6 0 5.6.6 5.6 1.7 0 1-3 1.7-5.7 1.7-2.6 0-5.6-.6-5.6-1.7 0-1 3-1.7 5.7-1.7z"/>
    <path fill="#FFF" stroke="#FF6910" d="M77.3 265c0 1-3 1.6-5.7 1.6-2.6 0-5.6-.6-5.6-1.7m11.3-2.8c0 1.1-3 1.7-5.7 1.7-2.6 0-5.6-.6-5.6-1.7m5.6-4.5c2.7 0 5.7.6 5.7 1.7 0 1-3 1.7-5.7 1.7-2.6 0-5.6-.6-5.6-1.7 0-1 3-1.7 5.6-1.7z"/>
    <path fill="#FFF" stroke="#969696" d="M131.2 193.1h2.1l2.1 86.3-7.4-2.1z"/>
    <path fill="#FFF" stroke="#6E6E6E" d="M133.3 192H188l2.1 87.4h-54.7z"/>
    <path fill="#FFF" stroke="#969696" d="M111.2 212.5h2.1l2.1 69.5-7.4-2.1z"/>
    <path fill="#FFF" stroke="#969696" stroke-dasharray="0 3" d="M150 199.5c0 7 2.7 21.4 10.6 21.4 8 0 10.4-14.4 10.4-21.4"/>
    <path fill="#FFF" stroke="#969696" d="M150.8 199.5h-1.6"/>
    <path fill="#FFF" stroke="#969696" d="M171.8 199.5h-1.6"/>
    <path fill="#FFF" stroke="#6E6E6E" d="M113.3 211.5h67.3l2.1 70.5h-67.3z"/>
    <path fill="#FFF" stroke="#969696" stroke-dasharray="0 3" d="M136.5 219c0 7 2.5 21.4 10.4 21.4 8 0 10.6-14.4 10.6-21.4"/>
    <path fill="#FFF" stroke="#969696" d="M137.3 219h-1.6"/>
    <path fill="#FFF" stroke="#969696" d="M158.3 219h-1.6"/>
  </g>
</svg>
