<svg xmlns="http://www.w3.org/2000/svg" viewBox="0 0 96 96">
  <g fill="none" fill-rule="evenodd" stroke-linecap="round" stroke-linejoin="round" stroke-width="1.25">
    <path fill="#FFF" stroke="#6E6E6E" d="M48 25l27 22v36H21V47z"/>
    <path fill="#FFF" stroke="#969696" d="M24 80h48V16H24z"/>
    <path fill="#FFF" stroke="#969696" d="M42 30h10"/>
    <path stroke="#FF6910" d="M38.2 35.2c-.4.6-1 1-1.8 1-1.2 0-2.2-1.1-2.2-2.4v-2.4c0-1.3 1-2.4 2.2-2.4.7 0 1.4.4 1.8 1"/>
    <path stroke="#FF6910" d="M33 31.8h2.4"/>
    <path stroke="#FF6910" d="M33 33.4h2.4"/>
    <path fill="#FFF" stroke="#969696" d="M42 34h10.5"/>
    <path fill="#FFF" stroke="#969696" d="M40 38h14"/>
    <path fill="#FFF" stroke="#969696" d="M34 42h23"/>
    <path fill="#FFF" stroke="#969696" d="M34 46h28"/>
    <path fill="#FFF" stroke="#969696" d="M34 50h28"/>
    <path fill="#FFF" stroke="#969696" d="M63 13.8l-1.6 1c-.6.4-1.4.3-1.8-.3l-.7-1.1c-.4-.6-.2-1.4.4-1.8l1.7-1c.6-.4 1.4-.2 1.8.4l.7 1c.4.7.2 1.5-.4 1.8z"/>
    <path fill="#FFF" stroke="#969696" d="M76.3 13.4l-3.8-.9c-.8-.2-1.3-1-1.1-1.9l.4-2c.2-1 1-1.4 1.9-1.3l3.7 1c.9.1 1.4 1 1.2 1.8l-.5 2c-.2 1-1 1.5-1.8 1.3z"/>
    <path fill="#FFF" stroke="#6E6E6E" d="M86.2 32.8A16.2 16.2 0 0167 45.1c-8.7-2-14-10.7-12-19.5s10.7-14.3 19.3-12.3c8.7 2 14 10.7 12 19.5z"/>
    <path fill="#FFF" stroke="#969696" d="M61.6 19.4a13 13 0 0118.6.6c4.9 5.4 4.6 13.8-.7 18.9a13 13 0 01-18.6-.6c-4.9-5.4-4.6-13.8.7-18.9z"/>
    <path fill="#FFF" stroke="#969696" d="M68 39.7l-.6 2.2"/>
    <path fill="#FFF" stroke="#969696" d="M57.8 26.3l2.1.5"/>
    <path fill="#FFF" stroke="#FF6910" d="M77.2 26.2c0 .2-7.1 4.7-7.1 4.7l-3-5.3"/>
    <path fill="#FFF" stroke="#969696" d="M81.1 31.7l2.2.5"/>
    <path fill="#FFF" stroke="#969696" d="M73.4 16.1l-.5 2.2"/>
    <path fill="#FFF" stroke="#6E6E6E" d="M48 68l27-21v36H21V47l27 21z"/>
    <path fill="#FFF" stroke="#6E6E6E" d="M48 62l27 20.9H21z"/>
  </g>
</svg>
