<svg xmlns="http://www.w3.org/2000/svg" xmlns:xlink="http://www.w3.org/1999/xlink" viewBox="0 0 128 128">
  <defs>
    <ellipse id="paketti-a" cx="64" cy="93.5" rx="11" ry="4.5"/>
    <path id="paketti-b" d="M88.3 66.2L64 90.5 39.7 66.2l-.4-.5a35 35 0 1149 .5z"/>
  </defs>
  <g fill="none" fill-rule="evenodd" stroke-linecap="round" stroke-linejoin="round" stroke-width="1.25">
    <path fill="#FFF" stroke="#6E6E6E" d="M22 88h84l16 34H6z"/>
    <path fill="#FFF" stroke="#969696" d="M85.5 88l-34 11.4L82.2 122h-7.3l-28.3-20.9-36.5 12.2 2-4.3 31.1-10.4L28.8 88h7.3l12.1 8.9L74.8 88z"/>
    <path fill="#FFF" stroke="#FF6910" d="M29.9 94.4v2.8h-2.1v-2.8h-4.3l5.3-13.1 5.4 13.1z"/>
    <path fill="#FFF" stroke="#FF6910" d="M21.4 97.3c-2.7-.4-3.4-2.2-3.4-4.4 0-2.4 4.3-8.9 4.3-8.9s4.4 6.5 4.4 9c0 2.1-.6 4-3.4 4.3v3.5h-2v-3.5h0z"/>
    <path fill="#FFF" stroke="#FF6910" d="M113.4 113.3c-2.7-.4-3.4-2.2-3.4-4.4 0-2.4 4.3-8.9 4.3-8.9s4.4 6.5 4.4 9c0 2.1-.6 4-3.4 4.3v3.5h-2v-3.5h0z"/>
    <use stroke="#FFF" stroke-width="5" xlink:href="#paketti-a"/>
    <use stroke="#FF6910" xlink:href="#paketti-a"/>
    <use fill="#FFF" stroke="#FFF" stroke-width="5" xlink:href="#paketti-b"/>
    <use stroke="#6E6E6E" xlink:href="#paketti-b"/>
    <path fill="#FFF" stroke="#969696" d="M44 30.6h40v27.7H44z"/>
    <path fill="#FFF" stroke="#969696" d="M50.3 26h27.4l6.3 4.6H44z"/>
    <path fill="#FFF" stroke="#FF6910" d="M66 26l.8 4.6v7.7l-1.5-1.5-1.6 1.5-1.5-1.5-1.6 1.5v-7.7l.8-4.6H66z"/>
    <path fill="#FFF" stroke="#FF6910" d="M64.3 30.6H63h1.4z"/>
    <path fill="#FFF" stroke="#FF6910" d="M110 115.7c-2.4-.3-3-1.9-3-3.8 0-2.1 3.8-7.9 3.8-7.9s3.9 5.8 3.9 8c0 1.8-.5 3.4-3 3.7v3.1H110v-3h0z"/>
    <path stroke="#FF6910" d="M80 123L47.5 99l7.3-2.7"/>
  </g>
</svg>
