<svg xmlns="http://www.w3.org/2000/svg" viewBox="0 0 96 96">
  <g fill="none" fill-rule="evenodd" stroke-linecap="round" stroke-linejoin="round" stroke-width="1.25">
    <path fill="#FFF" stroke="#6E6E6E" d="M26 35.5a7.9 7.9 0 018.1 3.2c2-1 4.7-1.9 8.4-2.7 6.8-1.6 15.9-.7 19.6 0 11.4 2.1 17 8.2 17 18.3 0 6-2.2 11.1-6.7 15.5-4.4 4.3-3.1 12-10.8 12-4.8 0-7-.6-4.8-6 1-2.3-2.6-1.4-6.4-1.4-3.8 0-4.9-.4-7-.6-3.8 9.2-5.5 8-9.5 8-4.8 0-5.7-.6-3.5-6A9 9 0 0031 71c-3.6-.7-5.8-1.5-9-3.4-3-2-5.3-5-4.6-6.6-5-.5-5.6-6.8-5.2-8.2.4-1.4 3.1 1.1 5.8-.4 2.7-1.5 3.4-6.4 10.9-11-.3-1.7-1.3-3.7-2.9-5.8z"/>
    <path stroke="#969696" d="M77.5 45c8-4.5 2.4-11 0-8.2-3.5 4 5.5 8.2 6.3-.8"/>
    <circle cx="26.7" cy="50.9" r="1" fill="#FFF" stroke="#969696"/>
    <path stroke="#969696" d="M44 37.5s1.3 2 7 2 7-2 7-2"/>
    <path fill="#FFF" stroke="#FF6910" d="M46.6 36.9c-1-1-1.5-2.4-1.5-3.9h0a5.9 5.9 0 1110.3 3.9"/>
    <path fill="#FFF" d="M48 79.2V82c0 1-3 1.7-5.6 1.7-2.7 0-5.6-.7-5.6-1.7v-2.8c0-1.1 3-1.7 5.6-1.7 2.6 0 5.6.6 5.6 1.7z"/>
    <path fill="#FFF" d="M62.6 76.3V82c0 1-3 1.7-5.6 1.7-2.7 0-5.6-.7-5.6-1.7v-5.7c0-1 3-1.6 5.6-1.6 2.7 0 5.6.6 5.6 1.6z"/>
    <path fill="#FFF" d="M77.3 70.7V82c0 1-3 1.7-5.7 1.7C69 83.7 66 83 66 82V70.7c0-1 3-1.7 5.6-1.7 2.7 0 5.7.6 5.7 1.7z"/>
    <path fill="#FFF" stroke="#969696" d="M77.3 82c0 1-3 1.7-5.7 1.7C69 83.7 66 83 66 82m11.3-2.8c0 1-3 1.6-5.7 1.6-2.6 0-5.6-.6-5.6-1.6m11.3-2.9c0 1.1-3 1.7-5.7 1.7-2.6 0-5.6-.6-5.6-1.7m11.3-2.8c0 1.1-3 1.7-5.7 1.7-2.6 0-5.6-.6-5.6-1.7m5.6-4.5c2.7 0 5.7.6 5.7 1.7s-3 1.7-5.7 1.7c-2.6 0-5.6-.6-5.6-1.7 0-1 3-1.7 5.6-1.7z"/>
    <path fill="#FFF" stroke="#FF6910" d="M62.6 82c0 1-3 1.7-5.6 1.7-2.7 0-5.6-.7-5.6-1.7m11.2-2.8c0 1-3 1.6-5.6 1.6-2.7 0-5.6-.6-5.6-1.6m5.6-4.5c2.7 0 5.6.6 5.6 1.6 0 1.1-3 1.7-5.6 1.7-2.7 0-5.6-.6-5.6-1.7 0-1 3-1.6 5.6-1.6z"/>
    <path fill="#FFF" stroke="#969696" d="M48 82c0 1-3 1.7-5.6 1.7-2.7 0-5.6-.7-5.6-1.7m5.6-4.5c2.6 0 5.6.6 5.6 1.7 0 1-3 1.6-5.6 1.6-2.7 0-5.6-.6-5.6-1.6 0-1.1 3-1.7 5.6-1.7z"/>
    <circle cx="54.2" cy="19.8" r="5.1" fill="#FFF" stroke="#FF6910"/>
  </g>
</svg>
