<svg xmlns="http://www.w3.org/2000/svg" viewBox="0 0 96 96">
  <g fill="none" fill-rule="evenodd" stroke-linecap="round" stroke-linejoin="round" stroke-width="1.25">
    <path fill="#FFF" stroke="#6E6E6E" d="M16 30h64a2 2 0 012 2v46h0-68V32c0-1.1.9-2 2-2z"/>
    <rect width="60" height="38" x="18" y="36" fill="#FFF" stroke="#969696" rx=".5"/>
    <rect width="60" height="38" x="18" y="36" fill="#FFF" stroke="#969696" rx=".5"/>
    <circle cx="48" cy="33" r="1" fill="#FFF" stroke="#969696"/>
    <path fill="#FFF" stroke="#6E6E6E" d="M8 78h80v2a2 2 0 01-2 2H10a2 2 0 01-2-2v-2h0z"/>
    <path fill="#FFF" stroke="#969696" d="M42 78h12v1c0 .6-.4 1-1 1H43a1 1 0 01-1-1v-1h0z"/>
    <path fill="#FFF" stroke="#6E6E6E" d="M44 43h6c.6 0 1 .4 1 1v26c0 .6-.4 1-1 1h-6a1 1 0 01-1-1V44c0-.6.4-1 1-1z"/>
    <path fill="#FFF" stroke="#6E6E6E" d="M56 25h6c.6 0 1 .4 1 1v44c0 .6-.4 1-1 1h-6a1 1 0 01-1-1V26c0-.6.4-1 1-1z"/>
    <rect width="8" height="55" x="67" y="16" fill="#FFF" stroke="#FF6910" rx="1"/>
    <path stroke="#FFF" stroke-width="5" d="M12 57l16.1-16L45 51.7l15.4-16M10.7 61c1.5 0 2.7-1.2 2.7-2.7 0-1.4-1.2-2.6-2.7-2.6A2.7 2.7 0 008 58.3c0 1.5 1.2 2.7 2.7 2.7zM28 45c1.5 0 2.7-1.2 2.7-2.7 0-1.4-1.2-2.6-2.7-2.6a2.7 2.7 0 00-2.7 2.6c0 1.5 1.2 2.7 2.7 2.7zm16.1 9.3c1.5 0 2.7-1.2 2.7-2.6 0-1.5-1.2-2.7-2.7-2.7a2.7 2.7 0 00-2.7 2.7c0 1.4 1.2 2.6 2.7 2.6zm16.1-16c1.5 0 2.7-1.2 2.7-2.6 0-1.5-1.2-2.7-2.7-2.7a2.7 2.7 0 00-2.7 2.7c0 1.4 1.2 2.6 2.7 2.6z"/>
    <path stroke="#6E6E6E" d="M12 57l16-15.7 16.7 10.5L60 36"/>
    <circle cx="10.5" cy="58.5" r="2.5" fill="#FFF" stroke="#FF6910"/>
    <circle cx="28.5" cy="42.5" r="2.5" fill="#FFF" stroke="#FF6910"/>
    <circle cx="44.5" cy="51.5" r="2.5" fill="#FFF" stroke="#FF6910"/>
    <circle cx="60.5" cy="35.5" r="2.5" fill="#FFF" stroke="#FF6910"/>
  </g>
</svg>
